mtllib limestone_sand_style_fixed.mtl
usemtl limestone_sand_style_fixed
o wall_straight_1m
v -0.500000 0.000000 -0.150000
v -0.500000 0.000000 0.150000
v 0.500000 0.000000 0.150000
v 0.500000 0.000000 -0.150000
v -0.500000 2.000000 -0.150000
v -0.500000 2.000000 0.150000
v 0.500000 2.000000 0.150000
v 0.500000 2.000000 -0.150000
v -0.500000 0.000000 0.150000
v 0.500000 0.000000 0.150000
v 0.500000 2.000000 0.150000
v -0.500000 2.000000 0.150000
v 0.500000 0.000000 -0.150000
v -0.500000 0.000000 -0.150000
v -0.500000 2.000000 -0.150000
v 0.500000 2.000000 -0.150000
v -0.500000 0.000000 -0.150000
v -0.500000 0.000000 0.150000
v -0.500000 2.000000 0.150000
v -0.500000 2.000000 -0.150000
v 0.500000 0.000000 0.150000
v 0.500000 0.000000 -0.150000
v 0.500000 2.000000 -0.150000
v 0.500000 2.000000 0.150000
v -0.500000 2.000000 -0.180000
v -0.500000 2.000000 0.180000
v 0.500000 2.000000 0.180000
v 0.500000 2.000000 -0.180000
v -0.500000 2.100000 -0.180000
v -0.500000 2.100000 0.180000
v 0.500000 2.100000 0.180000
v 0.500000 2.100000 -0.180000
v -0.500000 2.000000 0.180000
v 0.500000 2.000000 0.180000
v 0.500000 2.100000 0.180000
v -0.500000 2.100000 0.180000
v 0.500000 2.000000 -0.180000
v -0.500000 2.000000 -0.180000
v -0.500000 2.100000 -0.180000
v 0.500000 2.100000 -0.180000
v -0.500000 2.000000 -0.180000
v -0.500000 2.000000 0.180000
v -0.500000 2.100000 0.180000
v -0.500000 2.100000 -0.180000
v 0.500000 2.000000 0.180000
v 0.500000 2.000000 -0.180000
v 0.500000 2.100000 -0.180000
v 0.500000 2.100000 0.180000
vt 0.000000 0.000000
vt 1.000000 0.000000
vt 1.000000 0.300000
vt 0.000000 0.300000
vt 0.000000 0.000000
vt 1.000000 0.000000
vt 1.000000 0.300000
vt 0.000000 0.300000
vt 0.000000 0.000000
vt 1.000000 0.000000
vt 1.000000 2.000000
vt 0.000000 2.000000
vt 0.000000 0.000000
vt 1.000000 0.000000
vt 1.000000 2.000000
vt 0.000000 2.000000
vt 0.000000 0.000000
vt 0.300000 0.000000
vt 0.300000 2.000000
vt 0.000000 2.000000
vt 0.000000 0.000000
vt 0.300000 0.000000
vt 0.300000 2.000000
vt 0.000000 2.000000
vt 0.000000 0.000000
vt 1.000000 0.000000
vt 1.000000 0.360000
vt 0.000000 0.360000
vt 0.000000 0.000000
vt 1.000000 0.000000
vt 1.000000 0.360000
vt 0.000000 0.360000
vt 0.000000 0.000000
vt 1.000000 0.000000
vt 1.000000 0.100000
vt 0.000000 0.100000
vt 0.000000 0.000000
vt 1.000000 0.000000
vt 1.000000 0.100000
vt 0.000000 0.100000
vt 0.000000 0.000000
vt 0.360000 0.000000
vt 0.360000 0.100000
vt 0.000000 0.100000
vt 0.000000 0.000000
vt 0.360000 0.000000
vt 0.360000 0.100000
vt 0.000000 0.100000
f 1/1 2/2 3/3
f 1/1 3/3 4/4
f 5/5 6/6 7/7
f 5/5 7/7 8/8
f 9/9 10/10 11/11
f 9/9 11/11 12/12
f 13/13 14/14 15/15
f 13/13 15/15 16/16
f 17/17 18/18 19/19
f 17/17 19/19 20/20
f 21/21 22/22 23/23
f 21/21 23/23 24/24
f 25/25 26/26 27/27
f 25/25 27/27 28/28
f 29/29 30/30 31/31
f 29/29 31/31 32/32
f 33/33 34/34 35/35
f 33/33 35/35 36/36
f 37/37 38/38 39/39
f 37/37 39/39 40/40
f 41/41 42/42 43/43
f 41/41 43/43 44/44
f 45/45 46/46 47/47
f 45/45 47/47 48/48
o wall_2m
v 0.800000 0.000000 -0.150000
v 0.800000 0.000000 0.150000
v 2.800000 0.000000 0.150000
v 2.800000 0.000000 -0.150000
v 0.800000 2.000000 -0.150000
v 0.800000 2.000000 0.150000
v 2.800000 2.000000 0.150000
v 2.800000 2.000000 -0.150000
v 0.800000 0.000000 0.150000
v 2.800000 0.000000 0.150000
v 2.800000 2.000000 0.150000
v 0.800000 2.000000 0.150000
v 2.800000 0.000000 -0.150000
v 0.800000 0.000000 -0.150000
v 0.800000 2.000000 -0.150000
v 2.800000 2.000000 -0.150000
v 0.800000 0.000000 -0.150000
v 0.800000 0.000000 0.150000
v 0.800000 2.000000 0.150000
v 0.800000 2.000000 -0.150000
v 2.800000 0.000000 0.150000
v 2.800000 0.000000 -0.150000
v 2.800000 2.000000 -0.150000
v 2.800000 2.000000 0.150000
v 0.800000 2.000000 -0.180000
v 0.800000 2.000000 0.180000
v 2.800000 2.000000 0.180000
v 2.800000 2.000000 -0.180000
v 0.800000 2.100000 -0.180000
v 0.800000 2.100000 0.180000
v 2.800000 2.100000 0.180000
v 2.800000 2.100000 -0.180000
v 0.800000 2.000000 0.180000
v 2.800000 2.000000 0.180000
v 2.800000 2.100000 0.180000
v 0.800000 2.100000 0.180000
v 2.800000 2.000000 -0.180000
v 0.800000 2.000000 -0.180000
v 0.800000 2.100000 -0.180000
v 2.800000 2.100000 -0.180000
v 0.800000 2.000000 -0.180000
v 0.800000 2.000000 0.180000
v 0.800000 2.100000 0.180000
v 0.800000 2.100000 -0.180000
v 2.800000 2.000000 0.180000
v 2.800000 2.000000 -0.180000
v 2.800000 2.100000 -0.180000
v 2.800000 2.100000 0.180000
vt 0.000000 0.000000
vt 2.000000 0.000000
vt 2.000000 0.300000
vt 0.000000 0.300000
vt 0.000000 0.000000
vt 2.000000 0.000000
vt 2.000000 0.300000
vt 0.000000 0.300000
vt 0.000000 0.000000
vt 2.000000 0.000000
vt 2.000000 2.000000
vt 0.000000 2.000000
vt 0.000000 0.000000
vt 2.000000 0.000000
vt 2.000000 2.000000
vt 0.000000 2.000000
vt 0.000000 0.000000
vt 0.300000 0.000000
vt 0.300000 2.000000
vt 0.000000 2.000000
vt 0.000000 0.000000
vt 0.300000 0.000000
vt 0.300000 2.000000
vt 0.000000 2.000000
vt 0.000000 0.000000
vt 2.000000 0.000000
vt 2.000000 0.360000
vt 0.000000 0.360000
vt 0.000000 0.000000
vt 2.000000 0.000000
vt 2.000000 0.360000
vt 0.000000 0.360000
vt 0.000000 0.000000
vt 2.000000 0.000000
vt 2.000000 0.100000
vt 0.000000 0.100000
vt 0.000000 0.000000
vt 2.000000 0.000000
vt 2.000000 0.100000
vt 0.000000 0.100000
vt 0.000000 0.000000
vt 0.360000 0.000000
vt 0.360000 0.100000
vt 0.000000 0.100000
vt 0.000000 0.000000
vt 0.360000 0.000000
vt 0.360000 0.100000
vt 0.000000 0.100000
f 1/1 2/2 3/3
f 1/1 3/3 4/4
f 5/5 6/6 7/7
f 5/5 7/7 8/8
f 9/9 10/10 11/11
f 9/9 11/11 12/12
f 13/13 14/14 15/15
f 13/13 15/15 16/16
f 17/17 18/18 19/19
f 17/17 19/19 20/20
f 21/21 22/22 23/23
f 21/21 23/23 24/24
f 25/25 26/26 27/27
f 25/25 27/27 28/28
f 29/29 30/30 31/31
f 29/29 31/31 32/32
f 33/33 34/34 35/35
f 33/33 35/35 36/36
f 37/37 38/38 39/39
f 37/37 39/39 40/40
f 41/41 42/42 43/43
f 41/41 43/43 44/44
f 45/45 46/46 47/47
f 45/45 47/47 48/48
o wall_half_0_5m
v 3.350000 0.000000 -0.150000
v 3.350000 0.000000 0.150000
v 3.850000 0.000000 0.150000
v 3.850000 0.000000 -0.150000
v 3.350000 2.000000 -0.150000
v 3.350000 2.000000 0.150000
v 3.850000 2.000000 0.150000
v 3.850000 2.000000 -0.150000
v 3.350000 0.000000 0.150000
v 3.850000 0.000000 0.150000
v 3.850000 2.000000 0.150000
v 3.350000 2.000000 0.150000
v 3.850000 0.000000 -0.150000
v 3.350000 0.000000 -0.150000
v 3.350000 2.000000 -0.150000
v 3.850000 2.000000 -0.150000
v 3.350000 0.000000 -0.150000
v 3.350000 0.000000 0.150000
v 3.350000 2.000000 0.150000
v 3.350000 2.000000 -0.150000
v 3.850000 0.000000 0.150000
v 3.850000 0.000000 -0.150000
v 3.850000 2.000000 -0.150000
v 3.850000 2.000000 0.150000
v 3.350000 2.000000 -0.180000
v 3.350000 2.000000 0.180000
v 3.850000 2.000000 0.180000
v 3.850000 2.000000 -0.180000
v 3.350000 2.100000 -0.180000
v 3.350000 2.100000 0.180000
v 3.850000 2.100000 0.180000
v 3.850000 2.100000 -0.180000
v 3.350000 2.000000 0.180000
v 3.850000 2.000000 0.180000
v 3.850000 2.100000 0.180000
v 3.350000 2.100000 0.180000
v 3.850000 2.000000 -0.180000
v 3.350000 2.000000 -0.180000
v 3.350000 2.100000 -0.180000
v 3.850000 2.100000 -0.180000
v 3.350000 2.000000 -0.180000
v 3.350000 2.000000 0.180000
v 3.350000 2.100000 0.180000
v 3.350000 2.100000 -0.180000
v 3.850000 2.000000 0.180000
v 3.850000 2.000000 -0.180000
v 3.850000 2.100000 -0.180000
v 3.850000 2.100000 0.180000
vt 0.000000 0.000000
vt 0.500000 0.000000
vt 0.500000 0.300000
vt 0.000000 0.300000
vt 0.000000 0.000000
vt 0.500000 0.000000
vt 0.500000 0.300000
vt 0.000000 0.300000
vt 0.000000 0.000000
vt 0.500000 0.000000
vt 0.500000 2.000000
vt 0.000000 2.000000
vt 0.000000 0.000000
vt 0.500000 0.000000
vt 0.500000 2.000000
vt 0.000000 2.000000
vt 0.000000 0.000000
vt 0.300000 0.000000
vt 0.300000 2.000000
vt 0.000000 2.000000
vt 0.000000 0.000000
vt 0.300000 0.000000
vt 0.300000 2.000000
vt 0.000000 2.000000
vt 0.000000 0.000000
vt 0.500000 0.000000
vt 0.500000 0.360000
vt 0.000000 0.360000
vt 0.000000 0.000000
vt 0.500000 0.000000
vt 0.500000 0.360000
vt 0.000000 0.360000
vt 0.000000 0.000000
vt 0.500000 0.000000
vt 0.500000 0.100000
vt 0.000000 0.100000
vt 0.000000 0.000000
vt 0.500000 0.000000
vt 0.500000 0.100000
vt 0.000000 0.100000
vt 0.000000 0.000000
vt 0.360000 0.000000
vt 0.360000 0.100000
vt 0.000000 0.100000
vt 0.000000 0.000000
vt 0.360000 0.000000
vt 0.360000 0.100000
vt 0.000000 0.100000
f 1/1 2/2 3/3
f 1/1 3/3 4/4
f 5/5 6/6 7/7
f 5/5 7/7 8/8
f 9/9 10/10 11/11
f 9/9 11/11 12/12
f 13/13 14/14 15/15
f 13/13 15/15 16/16
f 17/17 18/18 19/19
f 17/17 19/19 20/20
f 21/21 22/22 23/23
f 21/21 23/23 24/24
f 25/25 26/26 27/27
f 25/25 27/27 28/28
f 29/29 30/30 31/31
f 29/29 31/31 32/32
f 33/33 34/34 35/35
f 33/33 35/35 36/36
f 37/37 38/38 39/39
f 37/37 39/39 40/40
f 41/41 42/42 43/43
f 41/41 43/43 44/44
f 45/45 46/46 47/47
f 45/45 47/47 48/48
o corner_outer_1m
v 4.550000 0.000000 -0.300000
v 4.550000 0.000000 0.000000
v 5.550000 0.000000 0.000000
v 5.550000 0.000000 -0.300000
v 4.550000 2.000000 -0.300000
v 4.550000 2.000000 0.000000
v 5.550000 2.000000 0.000000
v 5.550000 2.000000 -0.300000
v 4.550000 0.000000 0.000000
v 5.550000 0.000000 0.000000
v 5.550000 2.000000 0.000000
v 4.550000 2.000000 0.000000
v 5.550000 0.000000 -0.300000
v 4.550000 0.000000 -0.300000
v 4.550000 2.000000 -0.300000
v 5.550000 2.000000 -0.300000
v 4.550000 0.000000 -0.300000
v 4.550000 0.000000 0.000000
v 4.550000 2.000000 0.000000
v 4.550000 2.000000 -0.300000
v 5.550000 0.000000 0.000000
v 5.550000 0.000000 -0.300000
v 5.550000 2.000000 -0.300000
v 5.550000 2.000000 0.000000
v 5.100000 0.000000 -0.850000
v 5.100000 0.000000 0.150000
v 5.400000 0.000000 0.150000
v 5.400000 0.000000 -0.850000
v 5.100000 2.000000 -0.850000
v 5.100000 2.000000 0.150000
v 5.400000 2.000000 0.150000
v 5.400000 2.000000 -0.850000
v 5.100000 0.000000 0.150000
v 5.400000 0.000000 0.150000
v 5.400000 2.000000 0.150000
v 5.100000 2.000000 0.150000
v 5.400000 0.000000 -0.850000
v 5.100000 0.000000 -0.850000
v 5.100000 2.000000 -0.850000
v 5.400000 2.000000 -0.850000
v 5.100000 0.000000 -0.850000
v 5.100000 0.000000 0.150000
v 5.100000 2.000000 0.150000
v 5.100000 2.000000 -0.850000
v 5.400000 0.000000 0.150000
v 5.400000 0.000000 -0.850000
v 5.400000 2.000000 -0.850000
v 5.400000 2.000000 0.150000
v 4.550000 2.000000 -0.300000
v 4.550000 2.000000 0.000000
v 5.550000 2.000000 0.000000
v 5.550000 2.000000 -0.300000
v 4.550000 2.100000 -0.300000
v 4.550000 2.100000 0.000000
v 5.550000 2.100000 0.000000
v 5.550000 2.100000 -0.300000
v 4.550000 2.000000 0.000000
v 5.550000 2.000000 0.000000
v 5.550000 2.100000 0.000000
v 4.550000 2.100000 0.000000
v 5.550000 2.000000 -0.300000
v 4.550000 2.000000 -0.300000
v 4.550000 2.100000 -0.300000
v 5.550000 2.100000 -0.300000
v 4.550000 2.000000 -0.300000
v 4.550000 2.000000 0.000000
v 4.550000 2.100000 0.000000
v 4.550000 2.100000 -0.300000
v 5.550000 2.000000 0.000000
v 5.550000 2.000000 -0.300000
v 5.550000 2.100000 -0.300000
v 5.550000 2.100000 0.000000
v 5.100000 2.000000 -0.850000
v 5.100000 2.000000 0.150000
v 5.400000 2.000000 0.150000
v 5.400000 2.000000 -0.850000
v 5.100000 2.100000 -0.850000
v 5.100000 2.100000 0.150000
v 5.400000 2.100000 0.150000
v 5.400000 2.100000 -0.850000
v 5.100000 2.000000 0.150000
v 5.400000 2.000000 0.150000
v 5.400000 2.100000 0.150000
v 5.100000 2.100000 0.150000
v 5.400000 2.000000 -0.850000
v 5.100000 2.000000 -0.850000
v 5.100000 2.100000 -0.850000
v 5.400000 2.100000 -0.850000
v 5.100000 2.000000 -0.850000
v 5.100000 2.000000 0.150000
v 5.100000 2.100000 0.150000
v 5.100000 2.100000 -0.850000
v 5.400000 2.000000 0.150000
v 5.400000 2.000000 -0.850000
v 5.400000 2.100000 -0.850000
v 5.400000 2.100000 0.150000
vt 0.000000 0.000000
vt 1.000000 0.000000
vt 1.000000 0.300000
vt 0.000000 0.300000
vt 0.000000 0.000000
vt 1.000000 0.000000
vt 1.000000 0.300000
vt 0.000000 0.300000
vt 0.000000 0.000000
vt 1.000000 0.000000
vt 1.000000 2.000000
vt 0.000000 2.000000
vt 0.000000 0.000000
vt 1.000000 0.000000
vt 1.000000 2.000000
vt 0.000000 2.000000
vt 0.000000 0.000000
vt 0.300000 0.000000
vt 0.300000 2.000000
vt 0.000000 2.000000
vt 0.000000 0.000000
vt 0.300000 0.000000
vt 0.300000 2.000000
vt 0.000000 2.000000
vt 0.000000 0.000000
vt 0.300000 0.000000
vt 0.300000 1.000000
vt 0.000000 1.000000
vt 0.000000 0.000000
vt 0.300000 0.000000
vt 0.300000 1.000000
vt 0.000000 1.000000
vt 0.000000 0.000000
vt 0.300000 0.000000
vt 0.300000 2.000000
vt 0.000000 2.000000
vt 0.000000 0.000000
vt 0.300000 0.000000
vt 0.300000 2.000000
vt 0.000000 2.000000
vt 0.000000 0.000000
vt 1.000000 0.000000
vt 1.000000 2.000000
vt 0.000000 2.000000
vt 0.000000 0.000000
vt 1.000000 0.000000
vt 1.000000 2.000000
vt 0.000000 2.000000
vt 0.000000 0.000000
vt 1.000000 0.000000
vt 1.000000 0.300000
vt 0.000000 0.300000
vt 0.000000 0.000000
vt 1.000000 0.000000
vt 1.000000 0.300000
vt 0.000000 0.300000
vt 0.000000 0.000000
vt 1.000000 0.000000
vt 1.000000 0.100000
vt 0.000000 0.100000
vt 0.000000 0.000000
vt 1.000000 0.000000
vt 1.000000 0.100000
vt 0.000000 0.100000
vt 0.000000 0.000000
vt 0.300000 0.000000
vt 0.300000 0.100000
vt 0.000000 0.100000
vt 0.000000 0.000000
vt 0.300000 0.000000
vt 0.300000 0.100000
vt 0.000000 0.100000
vt 0.000000 0.000000
vt 0.300000 0.000000
vt 0.300000 1.000000
vt 0.000000 1.000000
vt 0.000000 0.000000
vt 0.300000 0.000000
vt 0.300000 1.000000
vt 0.000000 1.000000
vt 0.000000 0.000000
vt 0.300000 0.000000
vt 0.300000 0.100000
vt 0.000000 0.100000
vt 0.000000 0.000000
vt 0.300000 0.000000
vt 0.300000 0.100000
vt 0.000000 0.100000
vt 0.000000 0.000000
vt 1.000000 0.000000
vt 1.000000 0.100000
vt 0.000000 0.100000
vt 0.000000 0.000000
vt 1.000000 0.000000
vt 1.000000 0.100000
vt 0.000000 0.100000
f 1/1 2/2 3/3
f 1/1 3/3 4/4
f 5/5 6/6 7/7
f 5/5 7/7 8/8
f 9/9 10/10 11/11
f 9/9 11/11 12/12
f 13/13 14/14 15/15
f 13/13 15/15 16/16
f 17/17 18/18 19/19
f 17/17 19/19 20/20
f 21/21 22/22 23/23
f 21/21 23/23 24/24
f 25/25 26/26 27/27
f 25/25 27/27 28/28
f 29/29 30/30 31/31
f 29/29 31/31 32/32
f 33/33 34/34 35/35
f 33/33 35/35 36/36
f 37/37 38/38 39/39
f 37/37 39/39 40/40
f 41/41 42/42 43/43
f 41/41 43/43 44/44
f 45/45 46/46 47/47
f 45/45 47/47 48/48
f 49/49 50/50 51/51
f 49/49 51/51 52/52
f 53/53 54/54 55/55
f 53/53 55/55 56/56
f 57/57 58/58 59/59
f 57/57 59/59 60/60
f 61/61 62/62 63/63
f 61/61 63/63 64/64
f 65/65 66/66 67/67
f 65/65 67/67 68/68
f 69/69 70/70 71/71
f 69/69 71/71 72/72
f 73/73 74/74 75/75
f 73/73 75/75 76/76
f 77/77 78/78 79/79
f 77/77 79/79 80/80
f 81/81 82/82 83/83
f 81/81 83/83 84/84
f 85/85 86/86 87/87
f 85/85 87/87 88/88
f 89/89 90/90 91/91
f 89/89 91/91 92/92
f 93/93 94/94 95/95
f 93/93 95/95 96/96
o corner_inner_1m
v 7.050000 0.000000 0.000000
v 7.050000 0.000000 0.300000
v 8.050000 0.000000 0.300000
v 8.050000 0.000000 0.000000
v 7.050000 2.000000 0.000000
v 7.050000 2.000000 0.300000
v 8.050000 2.000000 0.300000
v 8.050000 2.000000 0.000000
v 7.050000 0.000000 0.300000
v 8.050000 0.000000 0.300000
v 8.050000 2.000000 0.300000
v 7.050000 2.000000 0.300000
v 8.050000 0.000000 0.000000
v 7.050000 0.000000 0.000000
v 7.050000 2.000000 0.000000
v 8.050000 2.000000 0.000000
v 7.050000 0.000000 0.000000
v 7.050000 0.000000 0.300000
v 7.050000 2.000000 0.300000
v 7.050000 2.000000 0.000000
v 8.050000 0.000000 0.300000
v 8.050000 0.000000 0.000000
v 8.050000 2.000000 0.000000
v 8.050000 2.000000 0.300000
v 7.200000 0.000000 -0.150000
v 7.200000 0.000000 0.850000
v 7.500000 0.000000 0.850000
v 7.500000 0.000000 -0.150000
v 7.200000 2.000000 -0.150000
v 7.200000 2.000000 0.850000
v 7.500000 2.000000 0.850000
v 7.500000 2.000000 -0.150000
v 7.200000 0.000000 0.850000
v 7.500000 0.000000 0.850000
v 7.500000 2.000000 0.850000
v 7.200000 2.000000 0.850000
v 7.500000 0.000000 -0.150000
v 7.200000 0.000000 -0.150000
v 7.200000 2.000000 -0.150000
v 7.500000 2.000000 -0.150000
v 7.200000 0.000000 -0.150000
v 7.200000 0.000000 0.850000
v 7.200000 2.000000 0.850000
v 7.200000 2.000000 -0.150000
v 7.500000 0.000000 0.850000
v 7.500000 0.000000 -0.150000
v 7.500000 2.000000 -0.150000
v 7.500000 2.000000 0.850000
v 7.050000 2.000000 0.000000
v 7.050000 2.000000 0.300000
v 8.050000 2.000000 0.300000
v 8.050000 2.000000 0.000000
v 7.050000 2.100000 0.000000
v 7.050000 2.100000 0.300000
v 8.050000 2.100000 0.300000
v 8.050000 2.100000 0.000000
v 7.050000 2.000000 0.300000
v 8.050000 2.000000 0.300000
v 8.050000 2.100000 0.300000
v 7.050000 2.100000 0.300000
v 8.050000 2.000000 0.000000
v 7.050000 2.000000 0.000000
v 7.050000 2.100000 0.000000
v 8.050000 2.100000 0.000000
v 7.050000 2.000000 0.000000
v 7.050000 2.000000 0.300000
v 7.050000 2.100000 0.300000
v 7.050000 2.100000 0.000000
v 8.050000 2.000000 0.300000
v 8.050000 2.000000 0.000000
v 8.050000 2.100000 0.000000
v 8.050000 2.100000 0.300000
v 7.200000 2.000000 -0.150000
v 7.200000 2.000000 0.850000
v 7.500000 2.000000 0.850000
v 7.500000 2.000000 -0.150000
v 7.200000 2.100000 -0.150000
v 7.200000 2.100000 0.850000
v 7.500000 2.100000 0.850000
v 7.500000 2.100000 -0.150000
v 7.200000 2.000000 0.850000
v 7.500000 2.000000 0.850000
v 7.500000 2.100000 0.850000
v 7.200000 2.100000 0.850000
v 7.500000 2.000000 -0.150000
v 7.200000 2.000000 -0.150000
v 7.200000 2.100000 -0.150000
v 7.500000 2.100000 -0.150000
v 7.200000 2.000000 -0.150000
v 7.200000 2.000000 0.850000
v 7.200000 2.100000 0.850000
v 7.200000 2.100000 -0.150000
v 7.500000 2.000000 0.850000
v 7.500000 2.000000 -0.150000
v 7.500000 2.100000 -0.150000
v 7.500000 2.100000 0.850000
vt 0.000000 0.000000
vt 1.000000 0.000000
vt 1.000000 0.300000
vt 0.000000 0.300000
vt 0.000000 0.000000
vt 1.000000 0.000000
vt 1.000000 0.300000
vt 0.000000 0.300000
vt 0.000000 0.000000
vt 1.000000 0.000000
vt 1.000000 2.000000
vt 0.000000 2.000000
vt 0.000000 0.000000
vt 1.000000 0.000000
vt 1.000000 2.000000
vt 0.000000 2.000000
vt 0.000000 0.000000
vt 0.300000 0.000000
vt 0.300000 2.000000
vt 0.000000 2.000000
vt 0.000000 0.000000
vt 0.300000 0.000000
vt 0.300000 2.000000
vt 0.000000 2.000000
vt 0.000000 0.000000
vt 0.300000 0.000000
vt 0.300000 1.000000
vt 0.000000 1.000000
vt 0.000000 0.000000
vt 0.300000 0.000000
vt 0.300000 1.000000
vt 0.000000 1.000000
vt 0.000000 0.000000
vt 0.300000 0.000000
vt 0.300000 2.000000
vt 0.000000 2.000000
vt 0.000000 0.000000
vt 0.300000 0.000000
vt 0.300000 2.000000
vt 0.000000 2.000000
vt 0.000000 0.000000
vt 1.000000 0.000000
vt 1.000000 2.000000
vt 0.000000 2.000000
vt 0.000000 0.000000
vt 1.000000 0.000000
vt 1.000000 2.000000
vt 0.000000 2.000000
vt 0.000000 0.000000
vt 1.000000 0.000000
vt 1.000000 0.300000
vt 0.000000 0.300000
vt 0.000000 0.000000
vt 1.000000 0.000000
vt 1.000000 0.300000
vt 0.000000 0.300000
vt 0.000000 0.000000
vt 1.000000 0.000000
vt 1.000000 0.100000
vt 0.000000 0.100000
vt 0.000000 0.000000
vt 1.000000 0.000000
vt 1.000000 0.100000
vt 0.000000 0.100000
vt 0.000000 0.000000
vt 0.300000 0.000000
vt 0.300000 0.100000
vt 0.000000 0.100000
vt 0.000000 0.000000
vt 0.300000 0.000000
vt 0.300000 0.100000
vt 0.000000 0.100000
vt 0.000000 0.000000
vt 0.300000 0.000000
vt 0.300000 1.000000
vt 0.000000 1.000000
vt 0.000000 0.000000
vt 0.300000 0.000000
vt 0.300000 1.000000
vt 0.000000 1.000000
vt 0.000000 0.000000
vt 0.300000 0.000000
vt 0.300000 0.100000
vt 0.000000 0.100000
vt 0.000000 0.000000
vt 0.300000 0.000000
vt 0.300000 0.100000
vt 0.000000 0.100000
vt 0.000000 0.000000
vt 1.000000 0.000000
vt 1.000000 0.100000
vt 0.000000 0.100000
vt 0.000000 0.000000
vt 1.000000 0.000000
vt 1.000000 0.100000
vt 0.000000 0.100000
f 1/1 2/2 3/3
f 1/1 3/3 4/4
f 5/5 6/6 7/7
f 5/5 7/7 8/8
f 9/9 10/10 11/11
f 9/9 11/11 12/12
f 13/13 14/14 15/15
f 13/13 15/15 16/16
f 17/17 18/18 19/19
f 17/17 19/19 20/20
f 21/21 22/22 23/23
f 21/21 23/23 24/24
f 25/25 26/26 27/27
f 25/25 27/27 28/28
f 29/29 30/30 31/31
f 29/29 31/31 32/32
f 33/33 34/34 35/35
f 33/33 35/35 36/36
f 37/37 38/38 39/39
f 37/37 39/39 40/40
f 41/41 42/42 43/43
f 41/41 43/43 44/44
f 45/45 46/46 47/47
f 45/45 47/47 48/48
f 49/49 50/50 51/51
f 49/49 51/51 52/52
f 53/53 54/54 55/55
f 53/53 55/55 56/56
f 57/57 58/58 59/59
f 57/57 59/59 60/60
f 61/61 62/62 63/63
f 61/61 63/63 64/64
f 65/65 66/66 67/67
f 65/65 67/67 68/68
f 69/69 70/70 71/71
f 69/69 71/71 72/72
f 73/73 74/74 75/75
f 73/73 75/75 76/76
f 77/77 78/78 79/79
f 77/77 79/79 80/80
f 81/81 82/82 83/83
f 81/81 83/83 84/84
f 85/85 86/86 87/87
f 85/85 87/87 88/88
f 89/89 90/90 91/91
f 89/89 91/91 92/92
f 93/93 94/94 95/95
f 93/93 95/95 96/96
o junction_T
v 8.500000 0.000000 -0.150000
v 8.500000 0.000000 0.150000
v 9.500000 0.000000 0.150000
v 9.500000 0.000000 -0.150000
v 8.500000 2.000000 -0.150000
v 8.500000 2.000000 0.150000
v 9.500000 2.000000 0.150000
v 9.500000 2.000000 -0.150000
v 8.500000 0.000000 0.150000
v 9.500000 0.000000 0.150000
v 9.500000 2.000000 0.150000
v 8.500000 2.000000 0.150000
v 9.500000 0.000000 -0.150000
v 8.500000 0.000000 -0.150000
v 8.500000 2.000000 -0.150000
v 9.500000 2.000000 -0.150000
v 8.500000 0.000000 -0.150000
v 8.500000 0.000000 0.150000
v 8.500000 2.000000 0.150000
v 8.500000 2.000000 -0.150000
v 9.500000 0.000000 0.150000
v 9.500000 0.000000 -0.150000
v 9.500000 2.000000 -0.150000
v 9.500000 2.000000 0.150000
v 8.850000 0.000000 -0.850000
v 8.850000 0.000000 0.150000
v 9.150000 0.000000 0.150000
v 9.150000 0.000000 -0.850000
v 8.850000 2.000000 -0.850000
v 8.850000 2.000000 0.150000
v 9.150000 2.000000 0.150000
v 9.150000 2.000000 -0.850000
v 8.850000 0.000000 0.150000
v 9.150000 0.000000 0.150000
v 9.150000 2.000000 0.150000
v 8.850000 2.000000 0.150000
v 9.150000 0.000000 -0.850000
v 8.850000 0.000000 -0.850000
v 8.850000 2.000000 -0.850000
v 9.150000 2.000000 -0.850000
v 8.850000 0.000000 -0.850000
v 8.850000 0.000000 0.150000
v 8.850000 2.000000 0.150000
v 8.850000 2.000000 -0.850000
v 9.150000 0.000000 0.150000
v 9.150000 0.000000 -0.850000
v 9.150000 2.000000 -0.850000
v 9.150000 2.000000 0.150000
vt 0.000000 0.000000
vt 1.000000 0.000000
vt 1.000000 0.300000
vt 0.000000 0.300000
vt 0.000000 0.000000
vt 1.000000 0.000000
vt 1.000000 0.300000
vt 0.000000 0.300000
vt 0.000000 0.000000
vt 1.000000 0.000000
vt 1.000000 2.000000
vt 0.000000 2.000000
vt 0.000000 0.000000
vt 1.000000 0.000000
vt 1.000000 2.000000
vt 0.000000 2.000000
vt 0.000000 0.000000
vt 0.300000 0.000000
vt 0.300000 2.000000
vt 0.000000 2.000000
vt 0.000000 0.000000
vt 0.300000 0.000000
vt 0.300000 2.000000
vt 0.000000 2.000000
vt 0.000000 0.000000
vt 0.300000 0.000000
vt 0.300000 1.000000
vt 0.000000 1.000000
vt 0.000000 0.000000
vt 0.300000 0.000000
vt 0.300000 1.000000
vt 0.000000 1.000000
vt 0.000000 0.000000
vt 0.300000 0.000000
vt 0.300000 2.000000
vt 0.000000 2.000000
vt 0.000000 0.000000
vt 0.300000 0.000000
vt 0.300000 2.000000
vt 0.000000 2.000000
vt 0.000000 0.000000
vt 1.000000 0.000000
vt 1.000000 2.000000
vt 0.000000 2.000000
vt 0.000000 0.000000
vt 1.000000 0.000000
vt 1.000000 2.000000
vt 0.000000 2.000000
f 1/1 2/2 3/3
f 1/1 3/3 4/4
f 5/5 6/6 7/7
f 5/5 7/7 8/8
f 9/9 10/10 11/11
f 9/9 11/11 12/12
f 13/13 14/14 15/15
f 13/13 15/15 16/16
f 17/17 18/18 19/19
f 17/17 19/19 20/20
f 21/21 22/22 23/23
f 21/21 23/23 24/24
f 25/25 26/26 27/27
f 25/25 27/27 28/28
f 29/29 30/30 31/31
f 29/29 31/31 32/32
f 33/33 34/34 35/35
f 33/33 35/35 36/36
f 37/37 38/38 39/39
f 37/37 39/39 40/40
f 41/41 42/42 43/43
f 41/41 43/43 44/44
f 45/45 46/46 47/47
f 45/45 47/47 48/48
o junction_X
v 10.300000 0.000000 -0.150000
v 10.300000 0.000000 0.150000
v 11.300000 0.000000 0.150000
v 11.300000 0.000000 -0.150000
v 10.300000 2.000000 -0.150000
v 10.300000 2.000000 0.150000
v 11.300000 2.000000 0.150000
v 11.300000 2.000000 -0.150000
v 10.300000 0.000000 0.150000
v 11.300000 0.000000 0.150000
v 11.300000 2.000000 0.150000
v 10.300000 2.000000 0.150000
v 11.300000 0.000000 -0.150000
v 10.300000 0.000000 -0.150000
v 10.300000 2.000000 -0.150000
v 11.300000 2.000000 -0.150000
v 10.300000 0.000000 -0.150000
v 10.300000 0.000000 0.150000
v 10.300000 2.000000 0.150000
v 10.300000 2.000000 -0.150000
v 11.300000 0.000000 0.150000
v 11.300000 0.000000 -0.150000
v 11.300000 2.000000 -0.150000
v 11.300000 2.000000 0.150000
v 10.650000 0.000000 -0.500000
v 10.650000 0.000000 0.500000
v 10.950000 0.000000 0.500000
v 10.950000 0.000000 -0.500000
v 10.650000 2.000000 -0.500000
v 10.650000 2.000000 0.500000
v 10.950000 2.000000 0.500000
v 10.950000 2.000000 -0.500000
v 10.650000 0.000000 0.500000
v 10.950000 0.000000 0.500000
v 10.950000 2.000000 0.500000
v 10.650000 2.000000 0.500000
v 10.950000 0.000000 -0.500000
v 10.650000 0.000000 -0.500000
v 10.650000 2.000000 -0.500000
v 10.950000 2.000000 -0.500000
v 10.650000 0.000000 -0.500000
v 10.650000 0.000000 0.500000
v 10.650000 2.000000 0.500000
v 10.650000 2.000000 -0.500000
v 10.950000 0.000000 0.500000
v 10.950000 0.000000 -0.500000
v 10.950000 2.000000 -0.500000
v 10.950000 2.000000 0.500000
vt 0.000000 0.000000
vt 1.000000 0.000000
vt 1.000000 0.300000
vt 0.000000 0.300000
vt 0.000000 0.000000
vt 1.000000 0.000000
vt 1.000000 0.300000
vt 0.000000 0.300000
vt 0.000000 0.000000
vt 1.000000 0.000000
vt 1.000000 2.000000
vt 0.000000 2.000000
vt 0.000000 0.000000
vt 1.000000 0.000000
vt 1.000000 2.000000
vt 0.000000 2.000000
vt 0.000000 0.000000
vt 0.300000 0.000000
vt 0.300000 2.000000
vt 0.000000 2.000000
vt 0.000000 0.000000
vt 0.300000 0.000000
vt 0.300000 2.000000
vt 0.000000 2.000000
vt 0.000000 0.000000
vt 0.300000 0.000000
vt 0.300000 1.000000
vt 0.000000 1.000000
vt 0.000000 0.000000
vt 0.300000 0.000000
vt 0.300000 1.000000
vt 0.000000 1.000000
vt 0.000000 0.000000
vt 0.300000 0.000000
vt 0.300000 2.000000
vt 0.000000 2.000000
vt 0.000000 0.000000
vt 0.300000 0.000000
vt 0.300000 2.000000
vt 0.000000 2.000000
vt 0.000000 0.000000
vt 1.000000 0.000000
vt 1.000000 2.000000
vt 0.000000 2.000000
vt 0.000000 0.000000
vt 1.000000 0.000000
vt 1.000000 2.000000
vt 0.000000 2.000000
f 1/1 2/2 3/3
f 1/1 3/3 4/4
f 5/5 6/6 7/7
f 5/5 7/7 8/8
f 9/9 10/10 11/11
f 9/9 11/11 12/12
f 13/13 14/14 15/15
f 13/13 15/15 16/16
f 17/17 18/18 19/19
f 17/17 19/19 20/20
f 21/21 22/22 23/23
f 21/21 23/23 24/24
f 25/25 26/26 27/27
f 25/25 27/27 28/28
f 29/29 30/30 31/31
f 29/29 31/31 32/32
f 33/33 34/34 35/35
f 33/33 35/35 36/36
f 37/37 38/38 39/39
f 37/37 39/39 40/40
f 41/41 42/42 43/43
f 41/41 43/43 44/44
f 45/45 46/46 47/47
f 45/45 47/47 48/48
o endcap
v 12.450000 0.000000 -0.150000
v 12.450000 0.000000 0.150000
v 12.750000 0.000000 0.150000
v 12.750000 0.000000 -0.150000
v 12.450000 2.000000 -0.150000
v 12.450000 2.000000 0.150000
v 12.750000 2.000000 0.150000
v 12.750000 2.000000 -0.150000
v 12.450000 0.000000 0.150000
v 12.750000 0.000000 0.150000
v 12.750000 2.000000 0.150000
v 12.450000 2.000000 0.150000
v 12.750000 0.000000 -0.150000
v 12.450000 0.000000 -0.150000
v 12.450000 2.000000 -0.150000
v 12.750000 2.000000 -0.150000
v 12.450000 0.000000 -0.150000
v 12.450000 0.000000 0.150000
v 12.450000 2.000000 0.150000
v 12.450000 2.000000 -0.150000
v 12.750000 0.000000 0.150000
v 12.750000 0.000000 -0.150000
v 12.750000 2.000000 -0.150000
v 12.750000 2.000000 0.150000
vt 0.000000 0.000000
vt 0.300000 0.000000
vt 0.300000 0.300000
vt 0.000000 0.300000
vt 0.000000 0.000000
vt 0.300000 0.000000
vt 0.300000 0.300000
vt 0.000000 0.300000
vt 0.000000 0.000000
vt 0.300000 0.000000
vt 0.300000 2.000000
vt 0.000000 2.000000
vt 0.000000 0.000000
vt 0.300000 0.000000
vt 0.300000 2.000000
vt 0.000000 2.000000
vt 0.000000 0.000000
vt 0.300000 0.000000
vt 0.300000 2.000000
vt 0.000000 2.000000
vt 0.000000 0.000000
vt 0.300000 0.000000
vt 0.300000 2.000000
vt 0.000000 2.000000
f 1/1 2/2 3/3
f 1/1 3/3 4/4
f 5/5 6/6 7/7
f 5/5 7/7 8/8
f 9/9 10/10 11/11
f 9/9 11/11 12/12
f 13/13 14/14 15/15
f 13/13 15/15 16/16
f 17/17 18/18 19/19
f 17/17 19/19 20/20
f 21/21 22/22 23/23
f 21/21 23/23 24/24
o doorway_arch
v 13.900000 0.000000 -0.150000
v 13.900000 0.000000 0.150000
v 14.100000 0.000000 0.150000
v 14.100000 0.000000 -0.150000
v 13.900000 2.000000 -0.150000
v 13.900000 2.000000 0.150000
v 14.100000 2.000000 0.150000
v 14.100000 2.000000 -0.150000
v 13.900000 0.000000 0.150000
v 14.100000 0.000000 0.150000
v 14.100000 2.000000 0.150000
v 13.900000 2.000000 0.150000
v 14.100000 0.000000 -0.150000
v 13.900000 0.000000 -0.150000
v 13.900000 2.000000 -0.150000
v 14.100000 2.000000 -0.150000
v 13.900000 0.000000 -0.150000
v 13.900000 0.000000 0.150000
v 13.900000 2.000000 0.150000
v 13.900000 2.000000 -0.150000
v 14.100000 0.000000 0.150000
v 14.100000 0.000000 -0.150000
v 14.100000 2.000000 -0.150000
v 14.100000 2.000000 0.150000
v 14.700000 0.000000 -0.150000
v 14.700000 0.000000 0.150000
v 14.900000 0.000000 0.150000
v 14.900000 0.000000 -0.150000
v 14.700000 2.000000 -0.150000
v 14.700000 2.000000 0.150000
v 14.900000 2.000000 0.150000
v 14.900000 2.000000 -0.150000
v 14.700000 0.000000 0.150000
v 14.900000 0.000000 0.150000
v 14.900000 2.000000 0.150000
v 14.700000 2.000000 0.150000
v 14.900000 0.000000 -0.150000
v 14.700000 0.000000 -0.150000
v 14.700000 2.000000 -0.150000
v 14.900000 2.000000 -0.150000
v 14.700000 0.000000 -0.150000
v 14.700000 0.000000 0.150000
v 14.700000 2.000000 0.150000
v 14.700000 2.000000 -0.150000
v 14.900000 0.000000 0.150000
v 14.900000 0.000000 -0.150000
v 14.900000 2.000000 -0.150000
v 14.900000 2.000000 0.150000
v 14.100000 1.500000 -0.150000
v 14.100000 1.500000 0.150000
v 14.700000 1.500000 0.150000
v 14.700000 1.500000 -0.150000
v 14.100000 2.000000 -0.150000
v 14.100000 2.000000 0.150000
v 14.700000 2.000000 0.150000
v 14.700000 2.000000 -0.150000
v 14.100000 1.500000 0.150000
v 14.700000 1.500000 0.150000
v 14.700000 2.000000 0.150000
v 14.100000 2.000000 0.150000
v 14.700000 1.500000 -0.150000
v 14.100000 1.500000 -0.150000
v 14.100000 2.000000 -0.150000
v 14.700000 2.000000 -0.150000
v 14.100000 1.500000 -0.150000
v 14.100000 1.500000 0.150000
v 14.100000 2.000000 0.150000
v 14.100000 2.000000 -0.150000
v 14.700000 1.500000 0.150000
v 14.700000 1.500000 -0.150000
v 14.700000 2.000000 -0.150000
v 14.700000 2.000000 0.150000
v 14.100000 2.000000 -0.150000
v 14.100000 2.000000 0.150000
v 14.700000 2.000000 0.150000
v 14.700000 2.000000 -0.150000
v 14.100000 2.250000 -0.150000
v 14.100000 2.250000 0.150000
v 14.700000 2.250000 0.150000
v 14.700000 2.250000 -0.150000
v 14.100000 2.000000 0.150000
v 14.700000 2.000000 0.150000
v 14.700000 2.250000 0.150000
v 14.100000 2.250000 0.150000
v 14.700000 2.000000 -0.150000
v 14.100000 2.000000 -0.150000
v 14.100000 2.250000 -0.150000
v 14.700000 2.250000 -0.150000
v 14.100000 2.000000 -0.150000
v 14.100000 2.000000 0.150000
v 14.100000 2.250000 0.150000
v 14.100000 2.250000 -0.150000
v 14.700000 2.000000 0.150000
v 14.700000 2.000000 -0.150000
v 14.700000 2.250000 -0.150000
v 14.700000 2.250000 0.150000
vt 0.000000 0.000000
vt 0.200000 0.000000
vt 0.200000 0.300000
vt 0.000000 0.300000
vt 0.000000 0.000000
vt 0.200000 0.000000
vt 0.200000 0.300000
vt 0.000000 0.300000
vt 0.000000 0.000000
vt 0.200000 0.000000
vt 0.200000 2.000000
vt 0.000000 2.000000
vt 0.000000 0.000000
vt 0.200000 0.000000
vt 0.200000 2.000000
vt 0.000000 2.000000
vt 0.000000 0.000000
vt 0.300000 0.000000
vt 0.300000 2.000000
vt 0.000000 2.000000
vt 0.000000 0.000000
vt 0.300000 0.000000
vt 0.300000 2.000000
vt 0.000000 2.000000
vt 0.000000 0.000000
vt 0.200000 0.000000
vt 0.200000 0.300000
vt 0.000000 0.300000
vt 0.000000 0.000000
vt 0.200000 0.000000
vt 0.200000 0.300000
vt 0.000000 0.300000
vt 0.000000 0.000000
vt 0.200000 0.000000
vt 0.200000 2.000000
vt 0.000000 2.000000
vt 0.000000 0.000000
vt 0.200000 0.000000
vt 0.200000 2.000000
vt 0.000000 2.000000
vt 0.000000 0.000000
vt 0.300000 0.000000
vt 0.300000 2.000000
vt 0.000000 2.000000
vt 0.000000 0.000000
vt 0.300000 0.000000
vt 0.300000 2.000000
vt 0.000000 2.000000
vt 0.000000 0.000000
vt 0.600000 0.000000
vt 0.600000 0.300000
vt 0.000000 0.300000
vt 0.000000 0.000000
vt 0.600000 0.000000
vt 0.600000 0.300000
vt 0.000000 0.300000
vt 0.000000 0.000000
vt 0.600000 0.000000
vt 0.600000 0.500000
vt 0.000000 0.500000
vt 0.000000 0.000000
vt 0.600000 0.000000
vt 0.600000 0.500000
vt 0.000000 0.500000
vt 0.000000 0.000000
vt 0.300000 0.000000
vt 0.300000 0.500000
vt 0.000000 0.500000
vt 0.000000 0.000000
vt 0.300000 0.000000
vt 0.300000 0.500000
vt 0.000000 0.500000
vt 0.000000 0.000000
vt 0.600000 0.000000
vt 0.600000 0.300000
vt 0.000000 0.300000
vt 0.000000 0.000000
vt 0.600000 0.000000
vt 0.600000 0.300000
vt 0.000000 0.300000
vt 0.000000 0.000000
vt 0.600000 0.000000
vt 0.600000 0.250000
vt 0.000000 0.250000
vt 0.000000 0.000000
vt 0.600000 0.000000
vt 0.600000 0.250000
vt 0.000000 0.250000
vt 0.000000 0.000000
vt 0.300000 0.000000
vt 0.300000 0.250000
vt 0.000000 0.250000
vt 0.000000 0.000000
vt 0.300000 0.000000
vt 0.300000 0.250000
vt 0.000000 0.250000
f 1/1 2/2 3/3
f 1/1 3/3 4/4
f 5/5 6/6 7/7
f 5/5 7/7 8/8
f 9/9 10/10 11/11
f 9/9 11/11 12/12
f 13/13 14/14 15/15
f 13/13 15/15 16/16
f 17/17 18/18 19/19
f 17/17 19/19 20/20
f 21/21 22/22 23/23
f 21/21 23/23 24/24
f 25/25 26/26 27/27
f 25/25 27/27 28/28
f 29/29 30/30 31/31
f 29/29 31/31 32/32
f 33/33 34/34 35/35
f 33/33 35/35 36/36
f 37/37 38/38 39/39
f 37/37 39/39 40/40
f 41/41 42/42 43/43
f 41/41 43/43 44/44
f 45/45 46/46 47/47
f 45/45 47/47 48/48
f 49/49 50/50 51/51
f 49/49 51/51 52/52
f 53/53 54/54 55/55
f 53/53 55/55 56/56
f 57/57 58/58 59/59
f 57/57 59/59 60/60
f 61/61 62/62 63/63
f 61/61 63/63 64/64
f 65/65 66/66 67/67
f 65/65 67/67 68/68
f 69/69 70/70 71/71
f 69/69 71/71 72/72
f 73/73 74/74 75/75
f 73/73 75/75 76/76
f 77/77 78/78 79/79
f 77/77 79/79 80/80
f 81/81 82/82 83/83
f 81/81 83/83 84/84
f 85/85 86/86 87/87
f 85/85 87/87 88/88
f 89/89 90/90 91/91
f 89/89 91/91 92/92
f 93/93 94/94 95/95
f 93/93 95/95 96/96
o pillar_tall
v 15.975000 0.000000 -0.225000
v 15.975000 0.000000 0.225000
v 16.425000 0.000000 0.225000
v 16.425000 0.000000 -0.225000
v 15.975000 2.200000 -0.225000
v 15.975000 2.200000 0.225000
v 16.425000 2.200000 0.225000
v 16.425000 2.200000 -0.225000
v 15.975000 0.000000 0.225000
v 16.425000 0.000000 0.225000
v 16.425000 2.200000 0.225000
v 15.975000 2.200000 0.225000
v 16.425000 0.000000 -0.225000
v 15.975000 0.000000 -0.225000
v 15.975000 2.200000 -0.225000
v 16.425000 2.200000 -0.225000
v 15.975000 0.000000 -0.225000
v 15.975000 0.000000 0.225000
v 15.975000 2.200000 0.225000
v 15.975000 2.200000 -0.225000
v 16.425000 0.000000 0.225000
v 16.425000 0.000000 -0.225000
v 16.425000 2.200000 -0.225000
v 16.425000 2.200000 0.225000
vt 0.000000 0.000000
vt 0.450000 0.000000
vt 0.450000 0.450000
vt 0.000000 0.450000
vt 0.000000 0.000000
vt 0.450000 0.000000
vt 0.450000 0.450000
vt 0.000000 0.450000
vt 0.000000 0.000000
vt 0.450000 0.000000
vt 0.450000 2.200000
vt 0.000000 2.200000
vt 0.000000 0.000000
vt 0.450000 0.000000
vt 0.450000 2.200000
vt 0.000000 2.200000
vt 0.000000 0.000000
vt 0.450000 0.000000
vt 0.450000 2.200000
vt 0.000000 2.200000
vt 0.000000 0.000000
vt 0.450000 0.000000
vt 0.450000 2.200000
vt 0.000000 2.200000
f 1/1 2/2 3/3
f 1/1 3/3 4/4
f 5/5 6/6 7/7
f 5/5 7/7 8/8
f 9/9 10/10 11/11
f 9/9 11/11 12/12
f 13/13 14/14 15/15
f 13/13 15/15 16/16
f 17/17 18/18 19/19
f 17/17 19/19 20/20
f 21/21 22/22 23/23
f 21/21 23/23 24/24
o pillar_broken
v 17.775000 0.000000 -0.225000
v 17.775000 0.000000 0.225000
v 18.225000 0.000000 0.225000
v 18.225000 0.000000 -0.225000
v 17.775000 1.320000 -0.225000
v 17.775000 1.320000 0.225000
v 18.225000 1.320000 0.225000
v 18.225000 1.320000 -0.225000
v 17.775000 0.000000 0.225000
v 18.225000 0.000000 0.225000
v 18.225000 1.320000 0.225000
v 17.775000 1.320000 0.225000
v 18.225000 0.000000 -0.225000
v 17.775000 0.000000 -0.225000
v 17.775000 1.320000 -0.225000
v 18.225000 1.320000 -0.225000
v 17.775000 0.000000 -0.225000
v 17.775000 0.000000 0.225000
v 17.775000 1.320000 0.225000
v 17.775000 1.320000 -0.225000
v 18.225000 0.000000 0.225000
v 18.225000 0.000000 -0.225000
v 18.225000 1.320000 -0.225000
v 18.225000 1.320000 0.225000
v 17.797500 1.320000 -0.202500
v 17.797500 1.320000 0.202500
v 18.202500 1.320000 0.202500
v 18.202500 1.320000 -0.202500
v 17.797500 1.410000 -0.202500
v 17.797500 1.410000 0.202500
v 18.202500 1.410000 0.202500
v 18.202500 1.410000 -0.202500
v 17.797500 1.320000 0.202500
v 18.202500 1.320000 0.202500
v 18.202500 1.410000 0.202500
v 17.797500 1.410000 0.202500
v 18.202500 1.320000 -0.202500
v 17.797500 1.320000 -0.202500
v 17.797500 1.410000 -0.202500
v 18.202500 1.410000 -0.202500
v 17.797500 1.320000 -0.202500
v 17.797500 1.320000 0.202500
v 17.797500 1.410000 0.202500
v 17.797500 1.410000 -0.202500
v 18.202500 1.320000 0.202500
v 18.202500 1.320000 -0.202500
v 18.202500 1.410000 -0.202500
v 18.202500 1.410000 0.202500
vt 0.000000 0.000000
vt 0.450000 0.000000
vt 0.450000 0.450000
vt 0.000000 0.450000
vt 0.000000 0.000000
vt 0.450000 0.000000
vt 0.450000 0.450000
vt 0.000000 0.450000
vt 0.000000 0.000000
vt 0.450000 0.000000
vt 0.450000 1.320000
vt 0.000000 1.320000
vt 0.000000 0.000000
vt 0.450000 0.000000
vt 0.450000 1.320000
vt 0.000000 1.320000
vt 0.000000 0.000000
vt 0.450000 0.000000
vt 0.450000 1.320000
vt 0.000000 1.320000
vt 0.000000 0.000000
vt 0.450000 0.000000
vt 0.450000 1.320000
vt 0.000000 1.320000
vt 0.000000 0.000000
vt 0.405000 0.000000
vt 0.405000 0.405000
vt 0.000000 0.405000
vt 0.000000 0.000000
vt 0.405000 0.000000
vt 0.405000 0.405000
vt 0.000000 0.405000
vt 0.000000 0.000000
vt 0.405000 0.000000
vt 0.405000 0.090000
vt 0.000000 0.090000
vt 0.000000 0.000000
vt 0.405000 0.000000
vt 0.405000 0.090000
vt 0.000000 0.090000
vt 0.000000 0.000000
vt 0.405000 0.000000
vt 0.405000 0.090000
vt 0.000000 0.090000
vt 0.000000 0.000000
vt 0.405000 0.000000
vt 0.405000 0.090000
vt 0.000000 0.090000
f 1/1 2/2 3/3
f 1/1 3/3 4/4
f 5/5 6/6 7/7
f 5/5 7/7 8/8
f 9/9 10/10 11/11
f 9/9 11/11 12/12
f 13/13 14/14 15/15
f 13/13 15/15 16/16
f 17/17 18/18 19/19
f 17/17 19/19 20/20
f 21/21 22/22 23/23
f 21/21 23/23 24/24
f 25/25 26/26 27/27
f 25/25 27/27 28/28
f 29/29 30/30 31/31
f 29/29 31/31 32/32
f 33/33 34/34 35/35
f 33/33 35/35 36/36
f 37/37 38/38 39/39
f 37/37 39/39 40/40
f 41/41 42/42 43/43
f 41/41 43/43 44/44
f 45/45 46/46 47/47
f 45/45 47/47 48/48
o rubble_small
v 19.525000 0.000000 -0.125000
v 19.525000 0.000000 0.125000
v 19.775000 0.000000 0.125000
v 19.775000 0.000000 -0.125000
v 19.525000 0.150000 -0.125000
v 19.525000 0.150000 0.125000
v 19.775000 0.150000 0.125000
v 19.775000 0.150000 -0.125000
v 19.525000 0.000000 0.125000
v 19.775000 0.000000 0.125000
v 19.775000 0.150000 0.125000
v 19.525000 0.150000 0.125000
v 19.775000 0.000000 -0.125000
v 19.525000 0.000000 -0.125000
v 19.525000 0.150000 -0.125000
v 19.775000 0.150000 -0.125000
v 19.525000 0.000000 -0.125000
v 19.525000 0.000000 0.125000
v 19.525000 0.150000 0.125000
v 19.525000 0.150000 -0.125000
v 19.775000 0.000000 0.125000
v 19.775000 0.000000 -0.125000
v 19.775000 0.150000 -0.125000
v 19.775000 0.150000 0.125000
v 19.810000 0.000000 -0.040000
v 19.810000 0.000000 0.140000
v 19.990000 0.000000 0.140000
v 19.990000 0.000000 -0.040000
v 19.810000 0.100000 -0.040000
v 19.810000 0.100000 0.140000
v 19.990000 0.100000 0.140000
v 19.990000 0.100000 -0.040000
v 19.810000 0.000000 0.140000
v 19.990000 0.000000 0.140000
v 19.990000 0.100000 0.140000
v 19.810000 0.100000 0.140000
v 19.990000 0.000000 -0.040000
v 19.810000 0.000000 -0.040000
v 19.810000 0.100000 -0.040000
v 19.990000 0.100000 -0.040000
v 19.810000 0.000000 -0.040000
v 19.810000 0.000000 0.140000
v 19.810000 0.100000 0.140000
v 19.810000 0.100000 -0.040000
v 19.990000 0.000000 0.140000
v 19.990000 0.000000 -0.040000
v 19.990000 0.100000 -0.040000
v 19.990000 0.100000 0.140000
v 19.750000 0.000000 -0.175000
v 19.750000 0.000000 -0.025000
v 19.950000 0.000000 -0.025000
v 19.950000 0.000000 -0.175000
v 19.750000 0.120000 -0.175000
v 19.750000 0.120000 -0.025000
v 19.950000 0.120000 -0.025000
v 19.950000 0.120000 -0.175000
v 19.750000 0.000000 -0.025000
v 19.950000 0.000000 -0.025000
v 19.950000 0.120000 -0.025000
v 19.750000 0.120000 -0.025000
v 19.950000 0.000000 -0.175000
v 19.750000 0.000000 -0.175000
v 19.750000 0.120000 -0.175000
v 19.950000 0.120000 -0.175000
v 19.750000 0.000000 -0.175000
v 19.750000 0.000000 -0.025000
v 19.750000 0.120000 -0.025000
v 19.750000 0.120000 -0.175000
v 19.950000 0.000000 -0.025000
v 19.950000 0.000000 -0.175000
v 19.950000 0.120000 -0.175000
v 19.950000 0.120000 -0.025000
vt 0.000000 0.000000
vt 0.125000 0.000000
vt 0.125000 0.125000
vt 0.000000 0.125000
vt 0.000000 0.000000
vt 0.125000 0.000000
vt 0.125000 0.125000
vt 0.000000 0.125000
vt 0.000000 0.000000
vt 0.125000 0.000000
vt 0.125000 0.075000
vt 0.000000 0.075000
vt 0.000000 0.000000
vt 0.125000 0.000000
vt 0.125000 0.075000
vt 0.000000 0.075000
vt 0.000000 0.000000
vt 0.125000 0.000000
vt 0.125000 0.075000
vt 0.000000 0.075000
vt 0.000000 0.000000
vt 0.125000 0.000000
vt 0.125000 0.075000
vt 0.000000 0.075000
vt 0.000000 0.000000
vt 0.090000 0.000000
vt 0.090000 0.090000
vt 0.000000 0.090000
vt 0.000000 0.000000
vt 0.090000 0.000000
vt 0.090000 0.090000
vt 0.000000 0.090000
vt 0.000000 0.000000
vt 0.090000 0.000000
vt 0.090000 0.050000
vt 0.000000 0.050000
vt 0.000000 0.000000
vt 0.090000 0.000000
vt 0.090000 0.050000
vt 0.000000 0.050000
vt 0.000000 0.000000
vt 0.090000 0.000000
vt 0.090000 0.050000
vt 0.000000 0.050000
vt 0.000000 0.000000
vt 0.090000 0.000000
vt 0.090000 0.050000
vt 0.000000 0.050000
vt 0.000000 0.000000
vt 0.100000 0.000000
vt 0.100000 0.075000
vt 0.000000 0.075000
vt 0.000000 0.000000
vt 0.100000 0.000000
vt 0.100000 0.075000
vt 0.000000 0.075000
vt 0.000000 0.000000
vt 0.100000 0.000000
vt 0.100000 0.060000
vt 0.000000 0.060000
vt 0.000000 0.000000
vt 0.100000 0.000000
vt 0.100000 0.060000
vt 0.000000 0.060000
vt 0.000000 0.000000
vt 0.075000 0.000000
vt 0.075000 0.060000
vt 0.000000 0.060000
vt 0.000000 0.000000
vt 0.075000 0.000000
vt 0.075000 0.060000
vt 0.000000 0.060000
f 1/1 2/2 3/3
f 1/1 3/3 4/4
f 5/5 6/6 7/7
f 5/5 7/7 8/8
f 9/9 10/10 11/11
f 9/9 11/11 12/12
f 13/13 14/14 15/15
f 13/13 15/15 16/16
f 17/17 18/18 19/19
f 17/17 19/19 20/20
f 21/21 22/22 23/23
f 21/21 23/23 24/24
f 25/25 26/26 27/27
f 25/25 27/27 28/28
f 29/29 30/30 31/31
f 29/29 31/31 32/32
f 33/33 34/34 35/35
f 33/33 35/35 36/36
f 37/37 38/38 39/39
f 37/37 39/39 40/40
f 41/41 42/42 43/43
f 41/41 43/43 44/44
f 45/45 46/46 47/47
f 45/45 47/47 48/48
f 49/49 50/50 51/51
f 49/49 51/51 52/52
f 53/53 54/54 55/55
f 53/53 55/55 56/56
f 57/57 58/58 59/59
f 57/57 59/59 60/60
f 61/61 62/62 63/63
f 61/61 63/63 64/64
f 65/65 66/66 67/67
f 65/65 67/67 68/68
f 69/69 70/70 71/71
f 69/69 71/71 72/72
